<svg xmlns="http://www.w3.org/2000/svg" width="25" height="27" viewBox="0 0 25 27"><g><g><g/><g><path fill="#333" d="M24.49 26a.84.84 0 0 1-.835.89H1.347A.839.839 0 0 1 .512 26L1.7 6.964a.837.837 0 0 1 .835-.785h4.428V4.871c0-2.62 2.485-4.751 5.538-4.751 3.053 0 5.538 2.132 5.538 4.751V6.18h4.427c.443 0 .808.344.836.785zM8.636 6.18h7.73V4.87c0-1.697-1.735-3.078-3.865-3.078S8.636 3.174 8.636 4.871zM3.322 7.852l-.725 11.6h19.808l-.725-11.6h-3.641v1.816a.837.837 0 0 1-1.674 0V7.853H8.637v1.816a.837.837 0 0 1-1.673 0V7.853zm19.443 17.363l-.29-4.648H2.526l-.29 4.648z"/></g></g></g></svg>